# xmcd
#
# Track frame offsets: 
#        150
#        14971
#        27445
#        41162
#        53257
#        66026
#        78822
#        92171
#        105408
#        117739
#        130925
#        143017
#        155403
#        167380
#        181787
#        195756
#        208668
#        221804
#        235015
#        257615
#
# Disc length: 4440 seconds
#
# Revision: 0
# Processed by: cddbd v1.5.1PL2 Copyright (c) Steve Scherf et al.
# Submitted via: ExactAudioCopy v0.95b3
#
DISCID=09115614
DTITLE=T-Bone Walker - The Best Of The Black and White And Imperial Year
DTITLE=s
DYEAR=2005
DGENRE=Blues
TTITLE0=T-Bone Blues
TTITLE1=I'm In An Awful Mood
TTITLE2=Call It Stormy Monday
TTITLE3=She's My Old Time Used To Be
TTITLE4=Hypin' Woman Blues
TTITLE5=Prison Blues
TTITLE6=I'm Still In Love With You
TTITLE7=You're My Best Poker Hand
TTITLE8=Glamour Girl
TTITLE9=You Don't Love Me
TTITLE10=Alimony Blues
TTITLE11=Life Is Too Short
TTITLE12=Tell Me What's The Reason
TTITLE13=Cold Cold Feeling
TTITLE14=Street Walking Woman
TTITLE15=Blue Mood
TTITLE16=Love Is Just A Gamble
TTITLE17=High Society
TTITLE18=(In The Evening) When The Sun Goes Down
TTITLE19=Data
EXTD=
EXTT0=
EXTT1=
EXTT2=
EXTT3=
EXTT4=
EXTT5=
EXTT6=
EXTT7=
EXTT8=
EXTT9=
EXTT10=
EXTT11=
EXTT12=
EXTT13=
EXTT14=
EXTT15=
EXTT16=
EXTT17=
EXTT18=
EXTT19=
PLAYORDER=
